<mxfile host="app.diagrams.net" modified="2022-01-14T16:48:12.066Z" agent="5.0 (Macintosh; Intel Mac OS X 10_15_7) AppleWebKit/537.36 (KHTML, like Gecko) Chrome/97.0.4692.71 Safari/537.36" etag="dNK2VEKNotytQMrk2jWG" version="16.2.6" type="github">
  <diagram id="o3Vj37FuA6i_zCHPi91s" name="Page-1">
    <mxGraphModel dx="1186" dy="654" grid="1" gridSize="10" guides="1" tooltips="1" connect="1" arrows="1" fold="1" page="1" pageScale="1" pageWidth="827" pageHeight="1169" math="0" shadow="0">
      <root>
        <mxCell id="0" />
        <mxCell id="1" parent="0" />
        <mxCell id="VDrUXmHTbGzfBgASFpA9-1" value="read" style="shape=step;perimeter=stepPerimeter;whiteSpace=wrap;html=1;fixedSize=1;fillColor=#e1d5e7;strokeColor=#9673a6;" vertex="1" parent="1">
          <mxGeometry x="320" y="210" width="90" height="40" as="geometry" />
        </mxCell>
        <mxCell id="VDrUXmHTbGzfBgASFpA9-24" style="edgeStyle=orthogonalEdgeStyle;rounded=0;orthogonalLoop=1;jettySize=auto;html=1;entryX=0;entryY=0.5;entryDx=0;entryDy=0;curved=1;exitX=1;exitY=0.5;exitDx=0;exitDy=0;" edge="1" parent="1" source="VDrUXmHTbGzfBgASFpA9-31" target="VDrUXmHTbGzfBgASFpA9-1">
          <mxGeometry relative="1" as="geometry">
            <mxPoint x="180" y="320" as="sourcePoint" />
            <Array as="points">
              <mxPoint x="240" y="320" />
              <mxPoint x="240" y="230" />
            </Array>
          </mxGeometry>
        </mxCell>
        <mxCell id="VDrUXmHTbGzfBgASFpA9-25" style="edgeStyle=orthogonalEdgeStyle;curved=1;rounded=0;orthogonalLoop=1;jettySize=auto;html=1;exitX=1;exitY=0.5;exitDx=0;exitDy=0;entryX=0;entryY=0.5;entryDx=0;entryDy=0;" edge="1" parent="1" source="VDrUXmHTbGzfBgASFpA9-31" target="VDrUXmHTbGzfBgASFpA9-14">
          <mxGeometry relative="1" as="geometry">
            <mxPoint x="200" y="320" as="sourcePoint" />
            <Array as="points">
              <mxPoint x="240" y="320" />
              <mxPoint x="240" y="410" />
            </Array>
          </mxGeometry>
        </mxCell>
        <mxCell id="VDrUXmHTbGzfBgASFpA9-26" style="edgeStyle=orthogonalEdgeStyle;curved=1;rounded=0;orthogonalLoop=1;jettySize=auto;html=1;exitX=1;exitY=0.5;exitDx=0;exitDy=0;" edge="1" parent="1" source="VDrUXmHTbGzfBgASFpA9-31" target="VDrUXmHTbGzfBgASFpA9-6">
          <mxGeometry relative="1" as="geometry">
            <mxPoint x="200" y="320" as="sourcePoint" />
          </mxGeometry>
        </mxCell>
        <mxCell id="VDrUXmHTbGzfBgASFpA9-27" style="edgeStyle=orthogonalEdgeStyle;curved=1;rounded=0;orthogonalLoop=1;jettySize=auto;html=1;exitX=1;exitY=0.5;exitDx=0;exitDy=0;" edge="1" parent="1" source="VDrUXmHTbGzfBgASFpA9-31" target="VDrUXmHTbGzfBgASFpA9-10">
          <mxGeometry relative="1" as="geometry">
            <mxPoint x="200" y="320" as="sourcePoint" />
          </mxGeometry>
        </mxCell>
        <mxCell id="VDrUXmHTbGzfBgASFpA9-3" value="parse" style="shape=step;perimeter=stepPerimeter;whiteSpace=wrap;html=1;fixedSize=1;fillColor=#dae8fc;strokeColor=#6c8ebf;" vertex="1" parent="1">
          <mxGeometry x="400" y="210" width="90" height="40" as="geometry" />
        </mxCell>
        <mxCell id="VDrUXmHTbGzfBgASFpA9-4" value="resp" style="shape=step;perimeter=stepPerimeter;whiteSpace=wrap;html=1;fixedSize=1;fillColor=#d5e8d4;strokeColor=#82b366;" vertex="1" parent="1">
          <mxGeometry x="480" y="210" width="90" height="40" as="geometry" />
        </mxCell>
        <mxCell id="VDrUXmHTbGzfBgASFpA9-23" style="edgeStyle=orthogonalEdgeStyle;rounded=0;orthogonalLoop=1;jettySize=auto;html=1;exitX=1;exitY=0.5;exitDx=0;exitDy=0;entryX=0;entryY=0.5;entryDx=0;entryDy=0;" edge="1" parent="1" source="VDrUXmHTbGzfBgASFpA9-5" target="VDrUXmHTbGzfBgASFpA9-19">
          <mxGeometry relative="1" as="geometry" />
        </mxCell>
        <mxCell id="VDrUXmHTbGzfBgASFpA9-5" value="excute" style="shape=step;perimeter=stepPerimeter;whiteSpace=wrap;html=1;fixedSize=1;fillColor=#f8cecc;strokeColor=#b85450;" vertex="1" parent="1">
          <mxGeometry x="560" y="210" width="90" height="40" as="geometry" />
        </mxCell>
        <mxCell id="VDrUXmHTbGzfBgASFpA9-6" value="read" style="shape=step;perimeter=stepPerimeter;whiteSpace=wrap;html=1;fixedSize=1;fillColor=#e1d5e7;strokeColor=#9673a6;" vertex="1" parent="1">
          <mxGeometry x="320" y="270" width="90" height="40" as="geometry" />
        </mxCell>
        <mxCell id="VDrUXmHTbGzfBgASFpA9-7" value="parse" style="shape=step;perimeter=stepPerimeter;whiteSpace=wrap;html=1;fixedSize=1;fillColor=#dae8fc;strokeColor=#6c8ebf;" vertex="1" parent="1">
          <mxGeometry x="400" y="270" width="90" height="40" as="geometry" />
        </mxCell>
        <mxCell id="VDrUXmHTbGzfBgASFpA9-8" value="resp" style="shape=step;perimeter=stepPerimeter;whiteSpace=wrap;html=1;fixedSize=1;fillColor=#d5e8d4;strokeColor=#82b366;" vertex="1" parent="1">
          <mxGeometry x="480" y="270" width="90" height="40" as="geometry" />
        </mxCell>
        <mxCell id="VDrUXmHTbGzfBgASFpA9-29" style="edgeStyle=orthogonalEdgeStyle;curved=1;rounded=0;orthogonalLoop=1;jettySize=auto;html=1;exitX=1;exitY=0.5;exitDx=0;exitDy=0;entryX=0;entryY=0.5;entryDx=0;entryDy=0;" edge="1" parent="1" source="VDrUXmHTbGzfBgASFpA9-9" target="VDrUXmHTbGzfBgASFpA9-28">
          <mxGeometry relative="1" as="geometry" />
        </mxCell>
        <mxCell id="VDrUXmHTbGzfBgASFpA9-9" value="excute" style="shape=step;perimeter=stepPerimeter;whiteSpace=wrap;html=1;fixedSize=1;fillColor=#f8cecc;strokeColor=#b85450;" vertex="1" parent="1">
          <mxGeometry x="560" y="270" width="90" height="40" as="geometry" />
        </mxCell>
        <mxCell id="VDrUXmHTbGzfBgASFpA9-10" value="read" style="shape=step;perimeter=stepPerimeter;whiteSpace=wrap;html=1;fixedSize=1;fillColor=#e1d5e7;strokeColor=#9673a6;" vertex="1" parent="1">
          <mxGeometry x="320" y="330" width="90" height="40" as="geometry" />
        </mxCell>
        <mxCell id="VDrUXmHTbGzfBgASFpA9-11" value="parse" style="shape=step;perimeter=stepPerimeter;whiteSpace=wrap;html=1;fixedSize=1;fillColor=#dae8fc;strokeColor=#6c8ebf;" vertex="1" parent="1">
          <mxGeometry x="400" y="330" width="90" height="40" as="geometry" />
        </mxCell>
        <mxCell id="VDrUXmHTbGzfBgASFpA9-12" value="resp" style="shape=step;perimeter=stepPerimeter;whiteSpace=wrap;html=1;fixedSize=1;fillColor=#d5e8d4;strokeColor=#82b366;" vertex="1" parent="1">
          <mxGeometry x="480" y="330" width="90" height="40" as="geometry" />
        </mxCell>
        <mxCell id="VDrUXmHTbGzfBgASFpA9-35" style="edgeStyle=orthogonalEdgeStyle;curved=1;rounded=0;orthogonalLoop=1;jettySize=auto;html=1;exitX=1;exitY=0.5;exitDx=0;exitDy=0;entryX=0;entryY=0.5;entryDx=0;entryDy=0;" edge="1" parent="1" source="VDrUXmHTbGzfBgASFpA9-13" target="VDrUXmHTbGzfBgASFpA9-33">
          <mxGeometry relative="1" as="geometry" />
        </mxCell>
        <mxCell id="VDrUXmHTbGzfBgASFpA9-13" value="excute" style="shape=step;perimeter=stepPerimeter;whiteSpace=wrap;html=1;fixedSize=1;fillColor=#f8cecc;strokeColor=#b85450;" vertex="1" parent="1">
          <mxGeometry x="560" y="330" width="90" height="40" as="geometry" />
        </mxCell>
        <mxCell id="VDrUXmHTbGzfBgASFpA9-14" value="read" style="shape=step;perimeter=stepPerimeter;whiteSpace=wrap;html=1;fixedSize=1;fillColor=#e1d5e7;strokeColor=#9673a6;" vertex="1" parent="1">
          <mxGeometry x="320" y="390" width="90" height="40" as="geometry" />
        </mxCell>
        <mxCell id="VDrUXmHTbGzfBgASFpA9-15" value="parse" style="shape=step;perimeter=stepPerimeter;whiteSpace=wrap;html=1;fixedSize=1;fillColor=#dae8fc;strokeColor=#6c8ebf;" vertex="1" parent="1">
          <mxGeometry x="400" y="390" width="90" height="40" as="geometry" />
        </mxCell>
        <mxCell id="VDrUXmHTbGzfBgASFpA9-16" value="resp" style="shape=step;perimeter=stepPerimeter;whiteSpace=wrap;html=1;fixedSize=1;fillColor=#d5e8d4;strokeColor=#82b366;" vertex="1" parent="1">
          <mxGeometry x="480" y="390" width="90" height="40" as="geometry" />
        </mxCell>
        <mxCell id="VDrUXmHTbGzfBgASFpA9-37" style="edgeStyle=orthogonalEdgeStyle;curved=1;rounded=0;orthogonalLoop=1;jettySize=auto;html=1;exitX=1;exitY=0.5;exitDx=0;exitDy=0;entryX=0;entryY=0.5;entryDx=0;entryDy=0;" edge="1" parent="1" source="VDrUXmHTbGzfBgASFpA9-17" target="VDrUXmHTbGzfBgASFpA9-34">
          <mxGeometry relative="1" as="geometry" />
        </mxCell>
        <mxCell id="VDrUXmHTbGzfBgASFpA9-17" value="excute" style="shape=step;perimeter=stepPerimeter;whiteSpace=wrap;html=1;fixedSize=1;fillColor=#f8cecc;strokeColor=#b85450;" vertex="1" parent="1">
          <mxGeometry x="560" y="390" width="90" height="40" as="geometry" />
        </mxCell>
        <mxCell id="VDrUXmHTbGzfBgASFpA9-19" value="write" style="shape=step;perimeter=stepPerimeter;whiteSpace=wrap;html=1;fixedSize=1;fillColor=#ffe6cc;strokeColor=#d79b00;" vertex="1" parent="1">
          <mxGeometry x="800" y="210" width="90" height="40" as="geometry" />
        </mxCell>
        <mxCell id="VDrUXmHTbGzfBgASFpA9-20" value="write" style="shape=step;perimeter=stepPerimeter;whiteSpace=wrap;html=1;fixedSize=1;fillColor=#ffe6cc;strokeColor=#d79b00;" vertex="1" parent="1">
          <mxGeometry x="800" y="270" width="90" height="40" as="geometry" />
        </mxCell>
        <mxCell id="VDrUXmHTbGzfBgASFpA9-21" value="write" style="shape=step;perimeter=stepPerimeter;whiteSpace=wrap;html=1;fixedSize=1;fillColor=#ffe6cc;strokeColor=#d79b00;" vertex="1" parent="1">
          <mxGeometry x="800" y="330" width="90" height="40" as="geometry" />
        </mxCell>
        <mxCell id="VDrUXmHTbGzfBgASFpA9-22" value="write" style="shape=step;perimeter=stepPerimeter;whiteSpace=wrap;html=1;fixedSize=1;fillColor=#ffe6cc;strokeColor=#d79b00;" vertex="1" parent="1">
          <mxGeometry x="800" y="390" width="90" height="40" as="geometry" />
        </mxCell>
        <mxCell id="VDrUXmHTbGzfBgASFpA9-32" value="" style="edgeStyle=orthogonalEdgeStyle;curved=1;rounded=0;orthogonalLoop=1;jettySize=auto;html=1;" edge="1" parent="1" source="VDrUXmHTbGzfBgASFpA9-28" target="VDrUXmHTbGzfBgASFpA9-20">
          <mxGeometry relative="1" as="geometry" />
        </mxCell>
        <mxCell id="VDrUXmHTbGzfBgASFpA9-28" value="IO-Thread 1" style="shape=process;whiteSpace=wrap;html=1;backgroundOutline=1;fillColor=#f5f5f5;strokeColor=#666666;fontColor=#333333;" vertex="1" parent="1">
          <mxGeometry x="680" y="275" width="100" height="30" as="geometry" />
        </mxCell>
        <mxCell id="VDrUXmHTbGzfBgASFpA9-31" value="Main-Thread 1" style="shape=process;whiteSpace=wrap;html=1;backgroundOutline=1;fillColor=#dae8fc;strokeColor=#6c8ebf;" vertex="1" parent="1">
          <mxGeometry x="80" y="290" width="130" height="60" as="geometry" />
        </mxCell>
        <mxCell id="VDrUXmHTbGzfBgASFpA9-36" style="edgeStyle=orthogonalEdgeStyle;curved=1;rounded=0;orthogonalLoop=1;jettySize=auto;html=1;exitX=1;exitY=0.5;exitDx=0;exitDy=0;" edge="1" parent="1" source="VDrUXmHTbGzfBgASFpA9-33" target="VDrUXmHTbGzfBgASFpA9-21">
          <mxGeometry relative="1" as="geometry" />
        </mxCell>
        <mxCell id="VDrUXmHTbGzfBgASFpA9-33" value="IO-Thread 2" style="shape=process;whiteSpace=wrap;html=1;backgroundOutline=1;fillColor=#f5f5f5;strokeColor=#666666;fontColor=#333333;" vertex="1" parent="1">
          <mxGeometry x="680" y="335" width="100" height="30" as="geometry" />
        </mxCell>
        <mxCell id="VDrUXmHTbGzfBgASFpA9-38" style="edgeStyle=orthogonalEdgeStyle;curved=1;rounded=0;orthogonalLoop=1;jettySize=auto;html=1;exitX=1;exitY=0.5;exitDx=0;exitDy=0;" edge="1" parent="1" source="VDrUXmHTbGzfBgASFpA9-34" target="VDrUXmHTbGzfBgASFpA9-22">
          <mxGeometry relative="1" as="geometry" />
        </mxCell>
        <mxCell id="VDrUXmHTbGzfBgASFpA9-34" value="IO-Thread 3" style="shape=process;whiteSpace=wrap;html=1;backgroundOutline=1;fillColor=#f5f5f5;strokeColor=#666666;fontColor=#333333;" vertex="1" parent="1">
          <mxGeometry x="680" y="395" width="100" height="30" as="geometry" />
        </mxCell>
        <mxCell id="VDrUXmHTbGzfBgASFpA9-40" value="&lt;div&gt;&lt;font style=&quot;font-size: 12px&quot; color=&quot;#3399ff&quot;&gt;&lt;b&gt;io-threads 4&lt;br&gt;              &lt;/b&gt;&lt;/font&gt;&lt;/div&gt;&lt;div&gt;&lt;font style=&quot;font-size: 12px&quot; color=&quot;#3399ff&quot;&gt;&lt;br&gt;&lt;/font&gt;&lt;/div&gt;&lt;div&gt;&lt;div style=&quot;line-height: 1.75&quot;&gt;&lt;font style=&quot;font-size: 12px&quot;&gt;默认情况下，如上配置，有三个 IO 线程， 这三个 IO 线程只会执行 IO 中的 write 操作，也就是说，read 和命令执行都由 main 线程执行。最后多线程将数据写回到客户端。&lt;/font&gt;&lt;/div&gt;&lt;/div&gt;" style="shape=note;whiteSpace=wrap;html=1;backgroundOutline=1;darkOpacity=0.05;align=left;spacing=12;verticalAlign=middle;sketch=1;fillColor=#fff2cc;strokeColor=#d6b656;" vertex="1" parent="1">
          <mxGeometry x="70" y="60" width="580" height="110" as="geometry" />
        </mxCell>
        <mxCell id="VDrUXmHTbGzfBgASFpA9-41" value="&lt;div&gt;&lt;font color=&quot;#3399ff&quot;&gt;&lt;b&gt;io-threads-do-reads yes&lt;/b&gt;&lt;/font&gt;&lt;/div&gt;&lt;div&gt;&lt;font color=&quot;#3399ff&quot;&gt;&lt;br&gt;&lt;/font&gt;&lt;/div&gt;&lt;div&gt;&lt;div&gt;将支持IO线程执行 读写任务&lt;br&gt;              &lt;/div&gt;&lt;/div&gt;" style="shape=note;whiteSpace=wrap;html=1;backgroundOutline=1;darkOpacity=0.05;align=left;spacing=12;verticalAlign=middle;sketch=1;fillColor=#fff2cc;strokeColor=#d6b656;" vertex="1" parent="1">
          <mxGeometry x="70" y="510" width="220" height="100" as="geometry" />
        </mxCell>
        <mxCell id="VDrUXmHTbGzfBgASFpA9-42" value="read" style="shape=step;perimeter=stepPerimeter;whiteSpace=wrap;html=1;fixedSize=1;fillColor=#e1d5e7;strokeColor=#9673a6;" vertex="1" parent="1">
          <mxGeometry x="310" y="680" width="90" height="40" as="geometry" />
        </mxCell>
        <mxCell id="VDrUXmHTbGzfBgASFpA9-47" value="parse" style="shape=step;perimeter=stepPerimeter;whiteSpace=wrap;html=1;fixedSize=1;fillColor=#dae8fc;strokeColor=#6c8ebf;" vertex="1" parent="1">
          <mxGeometry x="390" y="680" width="90" height="40" as="geometry" />
        </mxCell>
        <mxCell id="VDrUXmHTbGzfBgASFpA9-48" value="resp" style="shape=step;perimeter=stepPerimeter;whiteSpace=wrap;html=1;fixedSize=1;fillColor=#d5e8d4;strokeColor=#82b366;" vertex="1" parent="1">
          <mxGeometry x="470" y="680" width="90" height="40" as="geometry" />
        </mxCell>
        <mxCell id="VDrUXmHTbGzfBgASFpA9-50" value="excute" style="shape=step;perimeter=stepPerimeter;whiteSpace=wrap;html=1;fixedSize=1;fillColor=#f8cecc;strokeColor=#b85450;" vertex="1" parent="1">
          <mxGeometry x="550" y="680" width="90" height="40" as="geometry" />
        </mxCell>
        <mxCell id="VDrUXmHTbGzfBgASFpA9-51" value="read" style="shape=step;perimeter=stepPerimeter;whiteSpace=wrap;html=1;fixedSize=1;fillColor=#e1d5e7;strokeColor=#9673a6;" vertex="1" parent="1">
          <mxGeometry x="310" y="740" width="90" height="40" as="geometry" />
        </mxCell>
        <mxCell id="VDrUXmHTbGzfBgASFpA9-52" value="parse" style="shape=step;perimeter=stepPerimeter;whiteSpace=wrap;html=1;fixedSize=1;fillColor=#dae8fc;strokeColor=#6c8ebf;" vertex="1" parent="1">
          <mxGeometry x="390" y="740" width="90" height="40" as="geometry" />
        </mxCell>
        <mxCell id="VDrUXmHTbGzfBgASFpA9-53" value="resp" style="shape=step;perimeter=stepPerimeter;whiteSpace=wrap;html=1;fixedSize=1;fillColor=#d5e8d4;strokeColor=#82b366;" vertex="1" parent="1">
          <mxGeometry x="470" y="740" width="90" height="40" as="geometry" />
        </mxCell>
        <mxCell id="VDrUXmHTbGzfBgASFpA9-55" value="excute" style="shape=step;perimeter=stepPerimeter;whiteSpace=wrap;html=1;fixedSize=1;fillColor=#f8cecc;strokeColor=#b85450;" vertex="1" parent="1">
          <mxGeometry x="550" y="740" width="90" height="40" as="geometry" />
        </mxCell>
        <mxCell id="VDrUXmHTbGzfBgASFpA9-56" value="read" style="shape=step;perimeter=stepPerimeter;whiteSpace=wrap;html=1;fixedSize=1;fillColor=#e1d5e7;strokeColor=#9673a6;" vertex="1" parent="1">
          <mxGeometry x="310" y="800" width="90" height="40" as="geometry" />
        </mxCell>
        <mxCell id="VDrUXmHTbGzfBgASFpA9-57" value="parse" style="shape=step;perimeter=stepPerimeter;whiteSpace=wrap;html=1;fixedSize=1;fillColor=#dae8fc;strokeColor=#6c8ebf;" vertex="1" parent="1">
          <mxGeometry x="390" y="800" width="90" height="40" as="geometry" />
        </mxCell>
        <mxCell id="VDrUXmHTbGzfBgASFpA9-58" value="resp" style="shape=step;perimeter=stepPerimeter;whiteSpace=wrap;html=1;fixedSize=1;fillColor=#d5e8d4;strokeColor=#82b366;" vertex="1" parent="1">
          <mxGeometry x="470" y="800" width="90" height="40" as="geometry" />
        </mxCell>
        <mxCell id="VDrUXmHTbGzfBgASFpA9-60" value="excute" style="shape=step;perimeter=stepPerimeter;whiteSpace=wrap;html=1;fixedSize=1;fillColor=#f8cecc;strokeColor=#b85450;" vertex="1" parent="1">
          <mxGeometry x="550" y="800" width="90" height="40" as="geometry" />
        </mxCell>
        <mxCell id="VDrUXmHTbGzfBgASFpA9-61" value="read" style="shape=step;perimeter=stepPerimeter;whiteSpace=wrap;html=1;fixedSize=1;fillColor=#e1d5e7;strokeColor=#9673a6;" vertex="1" parent="1">
          <mxGeometry x="310" y="860" width="90" height="40" as="geometry" />
        </mxCell>
        <mxCell id="VDrUXmHTbGzfBgASFpA9-62" value="parse" style="shape=step;perimeter=stepPerimeter;whiteSpace=wrap;html=1;fixedSize=1;fillColor=#dae8fc;strokeColor=#6c8ebf;" vertex="1" parent="1">
          <mxGeometry x="390" y="860" width="90" height="40" as="geometry" />
        </mxCell>
        <mxCell id="VDrUXmHTbGzfBgASFpA9-63" value="resp" style="shape=step;perimeter=stepPerimeter;whiteSpace=wrap;html=1;fixedSize=1;fillColor=#d5e8d4;strokeColor=#82b366;" vertex="1" parent="1">
          <mxGeometry x="470" y="860" width="90" height="40" as="geometry" />
        </mxCell>
        <mxCell id="VDrUXmHTbGzfBgASFpA9-65" value="excute" style="shape=step;perimeter=stepPerimeter;whiteSpace=wrap;html=1;fixedSize=1;fillColor=#f8cecc;strokeColor=#b85450;" vertex="1" parent="1">
          <mxGeometry x="550" y="860" width="90" height="40" as="geometry" />
        </mxCell>
        <mxCell id="VDrUXmHTbGzfBgASFpA9-66" value="write" style="shape=step;perimeter=stepPerimeter;whiteSpace=wrap;html=1;fixedSize=1;fillColor=#ffe6cc;strokeColor=#d79b00;" vertex="1" parent="1">
          <mxGeometry x="630" y="680" width="90" height="40" as="geometry" />
        </mxCell>
        <mxCell id="VDrUXmHTbGzfBgASFpA9-67" value="write" style="shape=step;perimeter=stepPerimeter;whiteSpace=wrap;html=1;fixedSize=1;fillColor=#ffe6cc;strokeColor=#d79b00;" vertex="1" parent="1">
          <mxGeometry x="630" y="740" width="90" height="40" as="geometry" />
        </mxCell>
        <mxCell id="VDrUXmHTbGzfBgASFpA9-68" value="write" style="shape=step;perimeter=stepPerimeter;whiteSpace=wrap;html=1;fixedSize=1;fillColor=#ffe6cc;strokeColor=#d79b00;" vertex="1" parent="1">
          <mxGeometry x="630" y="800" width="90" height="40" as="geometry" />
        </mxCell>
        <mxCell id="VDrUXmHTbGzfBgASFpA9-69" value="write" style="shape=step;perimeter=stepPerimeter;whiteSpace=wrap;html=1;fixedSize=1;fillColor=#ffe6cc;strokeColor=#d79b00;" vertex="1" parent="1">
          <mxGeometry x="630" y="860" width="90" height="40" as="geometry" />
        </mxCell>
        <mxCell id="VDrUXmHTbGzfBgASFpA9-85" style="edgeStyle=orthogonalEdgeStyle;curved=1;rounded=0;orthogonalLoop=1;jettySize=auto;html=1;exitX=1;exitY=0.5;exitDx=0;exitDy=0;entryX=0;entryY=0.5;entryDx=0;entryDy=0;fontSize=12;fontColor=#3399FF;" edge="1" parent="1" source="VDrUXmHTbGzfBgASFpA9-80" target="VDrUXmHTbGzfBgASFpA9-51">
          <mxGeometry relative="1" as="geometry" />
        </mxCell>
        <mxCell id="VDrUXmHTbGzfBgASFpA9-80" value="IO-Thread 1" style="shape=process;whiteSpace=wrap;html=1;backgroundOutline=1;fillColor=#f5f5f5;strokeColor=#666666;fontColor=#333333;" vertex="1" parent="1">
          <mxGeometry x="140" y="745" width="100" height="30" as="geometry" />
        </mxCell>
        <mxCell id="VDrUXmHTbGzfBgASFpA9-86" style="edgeStyle=orthogonalEdgeStyle;curved=1;rounded=0;orthogonalLoop=1;jettySize=auto;html=1;exitX=1;exitY=0.5;exitDx=0;exitDy=0;entryX=0;entryY=0.5;entryDx=0;entryDy=0;fontSize=12;fontColor=#3399FF;" edge="1" parent="1" source="VDrUXmHTbGzfBgASFpA9-81" target="VDrUXmHTbGzfBgASFpA9-56">
          <mxGeometry relative="1" as="geometry" />
        </mxCell>
        <mxCell id="VDrUXmHTbGzfBgASFpA9-81" value="IO-Thread 2" style="shape=process;whiteSpace=wrap;html=1;backgroundOutline=1;fillColor=#f5f5f5;strokeColor=#666666;fontColor=#333333;" vertex="1" parent="1">
          <mxGeometry x="140" y="805" width="100" height="30" as="geometry" />
        </mxCell>
        <mxCell id="VDrUXmHTbGzfBgASFpA9-87" style="edgeStyle=orthogonalEdgeStyle;curved=1;rounded=0;orthogonalLoop=1;jettySize=auto;html=1;exitX=1;exitY=0.5;exitDx=0;exitDy=0;entryX=0;entryY=0.5;entryDx=0;entryDy=0;fontSize=12;fontColor=#3399FF;" edge="1" parent="1" source="VDrUXmHTbGzfBgASFpA9-82" target="VDrUXmHTbGzfBgASFpA9-61">
          <mxGeometry relative="1" as="geometry" />
        </mxCell>
        <mxCell id="VDrUXmHTbGzfBgASFpA9-82" value="IO-Thread 3" style="shape=process;whiteSpace=wrap;html=1;backgroundOutline=1;fillColor=#f5f5f5;strokeColor=#666666;fontColor=#333333;" vertex="1" parent="1">
          <mxGeometry x="140" y="865" width="100" height="30" as="geometry" />
        </mxCell>
        <mxCell id="VDrUXmHTbGzfBgASFpA9-84" style="edgeStyle=orthogonalEdgeStyle;curved=1;rounded=0;orthogonalLoop=1;jettySize=auto;html=1;exitX=1;exitY=0.5;exitDx=0;exitDy=0;fontSize=12;fontColor=#3399FF;" edge="1" parent="1" source="VDrUXmHTbGzfBgASFpA9-83" target="VDrUXmHTbGzfBgASFpA9-42">
          <mxGeometry relative="1" as="geometry" />
        </mxCell>
        <mxCell id="VDrUXmHTbGzfBgASFpA9-83" value="Main" style="shape=process;whiteSpace=wrap;html=1;backgroundOutline=1;fillColor=#dae8fc;strokeColor=#6c8ebf;" vertex="1" parent="1">
          <mxGeometry x="140" y="685" width="100" height="30" as="geometry" />
        </mxCell>
        <mxCell id="VDrUXmHTbGzfBgASFpA9-91" style="edgeStyle=orthogonalEdgeStyle;curved=1;rounded=0;orthogonalLoop=1;jettySize=auto;html=1;exitX=1;exitY=0.25;exitDx=0;exitDy=0;entryX=0;entryY=0.25;entryDx=0;entryDy=0;fontSize=12;fontColor=#000000;" edge="1" parent="1" source="VDrUXmHTbGzfBgASFpA9-89" target="VDrUXmHTbGzfBgASFpA9-90">
          <mxGeometry relative="1" as="geometry" />
        </mxCell>
        <mxCell id="VDrUXmHTbGzfBgASFpA9-95" value="1、get some key" style="edgeLabel;html=1;align=center;verticalAlign=middle;resizable=0;points=[];fontSize=12;fontColor=#000000;" vertex="1" connectable="0" parent="VDrUXmHTbGzfBgASFpA9-91">
          <mxGeometry x="-0.3103" relative="1" as="geometry">
            <mxPoint x="2" as="offset" />
          </mxGeometry>
        </mxCell>
        <mxCell id="VDrUXmHTbGzfBgASFpA9-92" style="edgeStyle=orthogonalEdgeStyle;curved=1;rounded=0;orthogonalLoop=1;jettySize=auto;html=1;exitX=1;exitY=0.5;exitDx=0;exitDy=0;fontSize=12;fontColor=#000000;" edge="1" parent="1" source="VDrUXmHTbGzfBgASFpA9-89" target="VDrUXmHTbGzfBgASFpA9-90">
          <mxGeometry relative="1" as="geometry" />
        </mxCell>
        <mxCell id="VDrUXmHTbGzfBgASFpA9-96" value="2、return some value" style="edgeLabel;html=1;align=center;verticalAlign=middle;resizable=0;points=[];fontSize=12;fontColor=#000000;" vertex="1" connectable="0" parent="VDrUXmHTbGzfBgASFpA9-92">
          <mxGeometry x="-0.2759" y="3" relative="1" as="geometry">
            <mxPoint x="9" y="3" as="offset" />
          </mxGeometry>
        </mxCell>
        <mxCell id="VDrUXmHTbGzfBgASFpA9-107" style="edgeStyle=orthogonalEdgeStyle;curved=1;rounded=0;orthogonalLoop=1;jettySize=auto;html=1;exitX=0.25;exitY=1;exitDx=0;exitDy=0;entryX=0.5;entryY=1;entryDx=0;entryDy=0;entryPerimeter=0;fontSize=12;fontColor=#000000;" edge="1" parent="1" source="VDrUXmHTbGzfBgASFpA9-89" target="VDrUXmHTbGzfBgASFpA9-97">
          <mxGeometry relative="1" as="geometry">
            <Array as="points">
              <mxPoint x="290" y="1210" />
              <mxPoint x="378" y="1210" />
            </Array>
          </mxGeometry>
        </mxCell>
        <mxCell id="VDrUXmHTbGzfBgASFpA9-108" value="3、&lt;span style=&quot;background-color: rgb(248 , 249 , 250)&quot;&gt;store some key&lt;/span&gt;" style="edgeLabel;html=1;align=center;verticalAlign=middle;resizable=0;points=[];fontSize=12;fontColor=#000000;" vertex="1" connectable="0" parent="VDrUXmHTbGzfBgASFpA9-107">
          <mxGeometry x="-0.5556" y="11" relative="1" as="geometry">
            <mxPoint as="offset" />
          </mxGeometry>
        </mxCell>
        <mxCell id="VDrUXmHTbGzfBgASFpA9-89" value="Client" style="rounded=0;whiteSpace=wrap;html=1;sketch=0;fontSize=12;fillColor=#d5e8d4;strokeColor=#82b366;" vertex="1" parent="1">
          <mxGeometry x="260" y="1050" width="120" height="100" as="geometry" />
        </mxCell>
        <mxCell id="VDrUXmHTbGzfBgASFpA9-105" style="edgeStyle=orthogonalEdgeStyle;curved=1;rounded=0;orthogonalLoop=1;jettySize=auto;html=1;exitX=0;exitY=0.75;exitDx=0;exitDy=0;fontSize=12;fontColor=#000000;entryX=1;entryY=0.75;entryDx=0;entryDy=0;" edge="1" parent="1" source="VDrUXmHTbGzfBgASFpA9-90" target="VDrUXmHTbGzfBgASFpA9-89">
          <mxGeometry relative="1" as="geometry">
            <mxPoint x="450" y="1150" as="targetPoint" />
          </mxGeometry>
        </mxCell>
        <mxCell id="VDrUXmHTbGzfBgASFpA9-106" value="5、invalidate some key" style="edgeLabel;html=1;align=center;verticalAlign=middle;resizable=0;points=[];fontSize=12;fontColor=#000000;" vertex="1" connectable="0" parent="VDrUXmHTbGzfBgASFpA9-105">
          <mxGeometry x="0.2483" y="-1" relative="1" as="geometry">
            <mxPoint x="11" as="offset" />
          </mxGeometry>
        </mxCell>
        <mxCell id="VDrUXmHTbGzfBgASFpA9-90" value="Server" style="rounded=0;whiteSpace=wrap;html=1;sketch=0;fontSize=12;fillColor=#ffe6cc;strokeColor=#d79b00;" vertex="1" parent="1">
          <mxGeometry x="670" y="1050" width="120" height="100" as="geometry" />
        </mxCell>
        <mxCell id="VDrUXmHTbGzfBgASFpA9-97" value="local cache" style="shape=cylinder3;whiteSpace=wrap;html=1;boundedLbl=1;backgroundOutline=1;size=7;sketch=0;fontSize=12;fillColor=#dae8fc;strokeColor=#6c8ebf;" vertex="1" parent="1">
          <mxGeometry x="345" y="1140" width="65" height="40" as="geometry" />
        </mxCell>
        <mxCell id="VDrUXmHTbGzfBgASFpA9-103" style="edgeStyle=orthogonalEdgeStyle;curved=1;rounded=0;orthogonalLoop=1;jettySize=auto;html=1;exitX=0.5;exitY=0;exitDx=0;exitDy=0;entryX=0.5;entryY=1;entryDx=0;entryDy=0;fontSize=12;fontColor=#000000;" edge="1" parent="1" source="VDrUXmHTbGzfBgASFpA9-102" target="VDrUXmHTbGzfBgASFpA9-90">
          <mxGeometry relative="1" as="geometry" />
        </mxCell>
        <mxCell id="VDrUXmHTbGzfBgASFpA9-104" value="4、set some key to new value" style="edgeLabel;html=1;align=center;verticalAlign=middle;resizable=0;points=[];fontSize=12;fontColor=#000000;" vertex="1" connectable="0" parent="VDrUXmHTbGzfBgASFpA9-103">
          <mxGeometry x="0.3" y="1" relative="1" as="geometry">
            <mxPoint x="1" y="15" as="offset" />
          </mxGeometry>
        </mxCell>
        <mxCell id="VDrUXmHTbGzfBgASFpA9-102" value="Client" style="rounded=0;whiteSpace=wrap;html=1;sketch=0;fontSize=12;fillColor=#d5e8d4;strokeColor=#82b366;" vertex="1" parent="1">
          <mxGeometry x="670" y="1250" width="120" height="100" as="geometry" />
        </mxCell>
        <mxCell id="VDrUXmHTbGzfBgASFpA9-110" value="Client Side Caching" style="text;html=1;strokeColor=none;fillColor=none;align=center;verticalAlign=middle;whiteSpace=wrap;rounded=0;sketch=0;fontSize=14;fontColor=#000000;fontStyle=5" vertex="1" parent="1">
          <mxGeometry x="245" y="1000" width="150" height="30" as="geometry" />
        </mxCell>
      </root>
    </mxGraphModel>
  </diagram>
</mxfile>
